<svg width="17" height="14" viewBox="0 0 17 14" fill="none" xmlns="http://www.w3.org/2000/svg">
<path d="M8.04569 0.132047L3.48762 3.86337L0.932338 4.1052C0.397109 4.15703 0 4.60617 0 5.12441V8.57933C0 9.11484 0.397109 9.56398 0.932338 9.59853L3.48762 9.84037L8.04569 13.5717C8.42553 13.8826 8.97803 13.6062 8.97803 13.1226V0.563912C8.96076 0.097498 8.40826 -0.178896 8.04569 0.132047Z" fill="white"/>
<path d="M11.9572 2.50756C11.8523 2.34477 11.6425 2.30858 11.5077 2.45329L10.9683 3.03212C10.8484 3.15874 10.8334 3.37579 10.9383 3.53859C11.5377 4.443 11.8973 5.60066 11.8973 6.84875C11.8973 8.09684 11.5377 9.25449 10.9383 10.1589C10.8334 10.3036 10.8484 10.5388 10.9683 10.6654L11.5077 11.2442C11.6425 11.3889 11.8373 11.3708 11.9572 11.1899C12.7513 9.99611 13.2308 8.47669 13.2308 6.83066C13.2308 5.18462 12.7663 3.70139 11.9572 2.50756Z" fill="white"/>
<path d="M13.9633 1.06383C13.8456 0.911609 13.6101 0.911607 13.4756 1.03L12.8702 1.58814C12.7356 1.70654 12.7188 1.92641 12.8365 2.06172C13.9129 3.36406 14.5519 5.0385 14.5519 6.84824C14.5519 8.65799 13.9129 10.3324 12.8365 11.6347C12.7188 11.787 12.7356 11.9899 12.8702 12.1083L13.4756 12.6665C13.6101 12.8018 13.8456 12.7849 13.9633 12.6326C15.2751 11.0597 16.0655 9.04699 16.0655 6.83133C16.0655 4.61566 15.2751 2.63678 13.9633 1.06383Z" fill="white"/>
</svg>
