<svg width="36" height="34" viewBox="0 0 36 34" fill="none" xmlns="http://www.w3.org/2000/svg">
<g filter="url(#filter0_d_769_1267)">
<path d="M17.9093 4.15848C18.8004 2.85609 20.0626 1.88377 21.5143 1.38147C22.9659 0.87916 24.5321 0.872767 25.9875 1.36321C27.4428 1.85366 28.7122 2.81564 29.613 4.11071C30.5138 5.40578 30.9995 6.96715 31.0002 8.57008C31.0002 15.0171 23.895 20.4369 18.7038 24.3941L17.9093 25L17.1148 24.3941C11.9236 20.4369 4.81836 15.0171 4.81836 8.57008C4.81907 6.96715 5.30476 5.40578 6.20554 4.11071C7.10632 2.81564 8.37573 1.85366 9.83106 1.36321C11.2864 0.872767 12.8526 0.87916 14.3043 1.38147C15.7559 1.88377 17.0181 2.85609 17.9093 4.15848ZM7.52682 8.57008C7.52682 13.3036 13.4945 18.1033 17.9093 21.4878C22.3241 18.1033 28.2917 13.3036 28.2917 8.57008C28.2917 7.31468 27.8161 6.1107 26.9696 5.223C26.123 4.3353 24.9748 3.8366 23.7776 3.8366C22.5804 3.8366 21.4322 4.3353 20.5857 5.223C19.7391 6.1107 19.2635 7.31468 19.2635 8.57008H16.555C16.555 7.31468 16.0794 6.1107 15.2329 5.223C14.3863 4.3353 13.2381 3.8366 12.0409 3.8366C10.8437 3.8366 9.69553 4.3353 8.84897 5.223C8.00242 6.1107 7.52682 7.31468 7.52682 8.57008Z" fill="white"/>
<path d="M17.9026 8.63628C18.6777 5.27473 22.4089 -0.411134 28.3569 4.50061C33.1153 8.43 24.0669 16.9645 18.9479 20.7406L17.9653 21.9302C15.9826 20.2929 11.262 15.9946 8.24117 11.8994C4.46511 6.78045 6.47855 3.18175 11.3574 3.18175C15.7206 3.18174 17.3679 6.86086 17.9026 8.63628Z" fill="white"/>
<path d="M17.9093 4.15848C18.8004 2.85609 20.0626 1.88377 21.5143 1.38147C22.9659 0.87916 24.5321 0.872767 25.9875 1.36321C27.4428 1.85366 28.7122 2.81564 29.613 4.11071C30.5138 5.40578 30.9995 6.96715 31.0002 8.57008C31.0002 15.0171 23.895 20.4369 18.7038 24.3941L17.9093 25L17.1148 24.3941C11.9236 20.4369 4.81836 15.0171 4.81836 8.57008C4.81907 6.96715 5.30476 5.40578 6.20554 4.11071C7.10632 2.81564 8.37573 1.85366 9.83106 1.36321C11.2864 0.872767 12.8526 0.87916 14.3043 1.38147C15.7559 1.88377 17.0181 2.85609 17.9093 4.15848ZM7.52682 8.57008C7.52682 13.3036 13.4945 18.1033 17.9093 21.4878C22.3241 18.1033 28.2917 13.3036 28.2917 8.57008C28.2917 7.31468 27.8161 6.1107 26.9696 5.223C26.123 4.3353 24.9748 3.8366 23.7776 3.8366C22.5804 3.8366 21.4322 4.3353 20.5857 5.223C19.7391 6.1107 19.2635 7.31468 19.2635 8.57008H16.555C16.555 7.31468 16.0794 6.1107 15.2329 5.223C14.3863 4.3353 13.2381 3.8366 12.0409 3.8366C10.8437 3.8366 9.69553 4.3353 8.84897 5.223C8.00242 6.1107 7.52682 7.31468 7.52682 8.57008Z" stroke="white"/>
<path d="M17.9026 8.63628C18.6777 5.27473 22.4089 -0.411134 28.3569 4.50061C33.1153 8.43 24.0669 16.9645 18.9479 20.7406L17.9653 21.9302C15.9826 20.2929 11.262 15.9946 8.24117 11.8994C4.46511 6.78045 6.47855 3.18175 11.3574 3.18175C15.7206 3.18174 17.3679 6.86086 17.9026 8.63628Z" stroke="white"/>
</g>
<defs>
<filter id="filter0_d_769_1267" x="0.318359" y="0.5" width="35.1816" height="33.1288" filterUnits="userSpaceOnUse" color-interpolation-filters="sRGB">
<feFlood flood-opacity="0" result="BackgroundImageFix"/>
<feColorMatrix in="SourceAlpha" type="matrix" values="0 0 0 0 0 0 0 0 0 0 0 0 0 0 0 0 0 0 127 0" result="hardAlpha"/>
<feOffset dy="4"/>
<feGaussianBlur stdDeviation="2"/>
<feComposite in2="hardAlpha" operator="out"/>
<feColorMatrix type="matrix" values="0 0 0 0 0 0 0 0 0 0 0 0 0 0 0 0 0 0 0.25 0"/>
<feBlend mode="normal" in2="BackgroundImageFix" result="effect1_dropShadow_769_1267"/>
<feBlend mode="normal" in="SourceGraphic" in2="effect1_dropShadow_769_1267" result="shape"/>
</filter>
</defs>
</svg>
