<svg width="14" height="12" viewBox="0 0 14 12" fill="none" xmlns="http://www.w3.org/2000/svg">
<path d="M0 10.8C0 11.4628 0.608827 12 1.36 12H12.24C12.9912 12 13.6 11.4628 13.6 10.8C13.6 10.1372 12.9912 9.60001 12.24 9.60001H1.36C0.608827 9.60001 0 10.1372 0 10.8Z" fill="white"/>
<path d="M0 5.99996C0 6.66276 0.608827 7.19996 1.36 7.19996H12.24C12.9912 7.19996 13.6 6.66276 13.6 5.99996C13.6 5.33716 12.9912 4.79996 12.24 4.79996H1.36C0.608827 4.79996 0 5.33716 0 5.99996Z" fill="white"/>
<path d="M1.36 0C0.608827 0 0 0.5372 0 1.2C0 1.8628 0.608827 2.4 1.36 2.4H12.24C12.9912 2.4 13.6 1.8628 13.6 1.2C13.6 0.5372 12.9912 0 12.24 0H1.36Z" fill="white"/>
</svg>
