<svg width="31" height="26" viewBox="0 0 31 26" fill="none" xmlns="http://www.w3.org/2000/svg">
<path d="M0.409549 18.1856C0.409549 18.1856 0.409549 18.2145 0.409549 18.2721C0.697734 18.2721 0.957069 18.3009 1.18762 18.3586C1.36053 18.445 1.61991 18.5315 1.79282 18.5315C3.43547 18.9638 4.99165 19.1367 6.63431 19.2231C6.72077 19.2231 7.06662 19.2231 7.15308 19.3096C9.0551 21.7303 11.3029 23.6324 13.7237 25.0157C13.8966 25.0157 13.983 25.1021 14.156 25.0157C14.2424 24.9292 14.3289 24.6698 14.3289 24.4969C14.3865 24.1511 14.4442 23.7764 14.5018 23.373C14.5018 23.0272 14.5018 22.5949 14.5882 22.3355C14.6747 21.9897 14.6747 21.6439 14.6747 21.3845C14.7324 20.5776 14.79 19.7418 14.8476 18.8773C14.9052 17.2634 14.9341 15.6496 14.9341 14.0358C14.9341 12.422 14.9052 10.8081 14.8476 9.1943C14.7611 7.55164 14.5883 5.90897 14.5018 4.26631C14.4442 3.57467 14.3865 2.85421 14.3289 2.10492C14.2712 1.7591 14.2136 1.41327 14.156 1.06745C14.156 0.894535 14.0695 0.116455 14.0695 0.116455C13.0321 0.721644 11.9081 1.49972 10.9571 2.36428C9.66026 3.57466 8.19053 5.39023 6.98015 6.68706C4.81876 7.03288 2.83027 7.29224 0.755339 7.3787C0.697702 7.43633 0.640055 7.43633 0.582418 7.3787C0.582418 7.3787 0.496004 7.81101 0.409549 7.89746C0.323093 8.32974 0.236595 8.76202 0.150139 9.1943C-0.109227 12.1338 0.236637 15.2462 0.409549 18.1856Z" fill="white"/>
<path d="M16.3177 6.7736L19.6895 4.17993C20.9575 5.85141 22.2831 7.49407 23.6664 9.10791C25.1073 7.49407 26.5195 5.88026 27.9027 4.26642C28.7673 4.95806 29.8048 5.56325 30.4964 6.42781C30.6693 6.68718 31.1881 6.86006 30.9287 7.20588C30.8422 7.37879 30.4964 7.6382 30.3235 7.89757C30.1506 8.07048 26.3465 12.2203 26.433 12.3932C27.8739 14.0647 29.3436 15.6786 30.8422 17.2348C30.7558 17.1483 30.2371 17.8399 30.2371 17.9264C29.6319 18.4451 29.0267 19.2232 28.4215 19.6555C28.1909 19.7708 27.9604 19.9149 27.7298 20.0878C27.8163 20.0013 23.9258 15.8515 23.6664 15.5921C23.8393 15.8515 20.2947 19.8284 19.8624 20.1742C19.6895 20.3471 19.603 20.1742 19.3436 20.0878C18.5655 19.6555 17.7874 18.9639 17.0093 18.3587C16.2312 17.8399 16.4906 17.6671 17.0958 16.9754C18.0756 15.765 19.0843 14.5546 20.1217 13.3443C20.1217 13.2578 20.8998 12.3932 20.8998 12.3932C19.3436 10.5488 17.8162 8.67562 16.3177 6.7736Z" fill="white"/>
</svg>
