<svg width="25" height="24" viewBox="0 0 25 24" fill="none" xmlns="http://www.w3.org/2000/svg">
<path fill-rule="evenodd" clip-rule="evenodd" d="M24.9988 15.5581C25.0005 14.8114 24.6654 14.1051 24.0886 13.6393L22.0647 12.0013L24.0886 10.3616C24.6638 9.89415 24.9988 9.18948 24.9988 8.44451C24.9988 7.69955 24.6637 6.9932 24.0886 6.5257L22.0647 4.88771L24.442 2.96213C25.0822 2.44586 25.1872 1.5041 24.6754 0.856646C24.1653 0.21087 23.2317 0.103241 22.5898 0.617842L19.6857 2.97053H19.684C19.1088 3.43803 18.7754 4.1427 18.7754 4.88767C18.7754 5.63268 19.1088 6.33899 19.684 6.80648L21.7063 8.44447L19.684 10.0825C19.1088 10.55 18.7738 11.2563 18.7738 12.0013C18.7738 12.7462 19.1088 13.4509 19.684 13.9184L21.7063 15.5581L19.6823 17.1977L19.684 17.1961C19.1088 17.6636 18.7738 18.3699 18.7738 19.1149C18.7738 19.8599 19.1088 20.5645 19.684 21.032L22.5865 23.3847C22.8933 23.6336 23.285 23.748 23.6768 23.7042C24.0686 23.6605 24.4254 23.4604 24.6704 23.1509C25.1806 22.5018 25.0772 21.56 24.4387 21.0404L22.0647 19.1148L24.0869 17.4768L24.0886 17.4752C24.6654 17.0093 25.0005 16.3031 24.9988 15.5581ZM12.2584 0.353974L5.29149 5.99461H2.11726C0.945259 5.99797 -0.00165521 6.95824 9.26336e-06 8.14048V15.8631C-0.00165777 16.4298 0.221738 16.9764 0.61851 17.3783C1.01529 17.7802 1.55544 18.0072 2.11892 18.0072H5.29649L12.26 23.6479C12.7351 24.033 13.3869 24.1087 13.9354 23.843C14.4839 23.5756 14.8324 23.0139 14.829 22.4V1.60562C14.834 0.990115 14.4873 0.42674 13.9371 0.157667C13.387 -0.109723 12.7335 -0.0323677 12.2583 0.354426L12.2584 0.353974Z" fill="white"/>
</svg>
