<svg width="69" height="69" viewBox="0 0 69 69" fill="none" xmlns="http://www.w3.org/2000/svg">
<path fill-rule="evenodd" clip-rule="evenodd" d="M34.8 0C53.7147 0 69 15.2853 69 34.2C69 53.1146 53.7147 68.3999 34.8 68.3999C15.8854 68.3999 0.600098 53.1146 0.600098 34.2C0.600098 15.2853 15.8854 0 34.8 0Z" fill="#572E18"/>
<path fill-rule="evenodd" clip-rule="evenodd" d="M34.7999 4.60645C38.2199 4.60645 41.5702 5.16483 44.6412 6.28156L44.9902 7.1889L46.1069 6.83992C56.7856 11.3069 64.3236 21.846 64.3236 34.1999C64.3236 50.5321 51.0624 63.7933 34.7302 63.7933C18.3979 63.7933 5.13672 50.5321 5.13672 34.1999C5.13672 33.5717 5.13674 33.0134 5.20654 32.3852L6.25348 31.3383L5.41592 30.4309C7.30041 15.8436 19.724 4.60645 34.7999 4.60645Z" fill="url(#paint0_linear_584_532)"/>
<path fill-rule="evenodd" clip-rule="evenodd" d="M34.8002 11.3069C47.4333 11.3069 57.6933 21.5669 57.6933 34.1999C57.6933 46.833 47.4333 57.0929 34.8002 57.0929C22.1672 57.0929 11.9072 46.833 11.9072 34.1999C11.9072 21.5669 22.1672 11.3069 34.8002 11.3069Z" fill="url(#paint1_linear_584_532)"/>
<path fill-rule="evenodd" clip-rule="evenodd" d="M34.8 2.09387C52.5282 2.09387 66.9061 16.4718 66.9061 34.2C66.9061 51.9281 52.5282 66.306 34.8 66.306C17.0719 66.306 2.69397 51.9281 2.69397 34.2C2.69397 16.4718 17.0719 2.09387 34.8 2.09387ZM69 34.2C69 15.2853 53.7147 0 34.8 0C15.8854 0 0.600098 15.2853 0.600098 34.2C0.600098 53.1146 15.8854 68.3999 34.8 68.3999C53.7147 68.3999 69 53.0448 69 34.2Z" fill="url(#paint2_linear_584_532)"/>
<path fill-rule="evenodd" clip-rule="evenodd" d="M66.906 34.1998C66.906 16.4717 52.5281 2.09375 34.7999 2.09375C17.0718 2.09375 2.69385 16.4717 2.69385 34.1998C2.69385 51.928 17.0718 66.3059 34.7999 66.3059C52.5281 66.3059 66.906 51.928 66.906 34.1998ZM34.7999 4.60638C51.1321 4.60638 64.3934 17.8676 64.3934 34.1998C64.3934 50.532 51.1321 63.7932 34.7999 63.7932C18.4677 63.7932 5.20652 50.532 5.20652 34.1998C5.20652 17.8676 18.4677 4.60638 34.7999 4.60638Z" fill="url(#paint3_linear_584_532)"/>
<path fill-rule="evenodd" clip-rule="evenodd" d="M3.81055 25.8943C5.97422 17.1 11.5579 10.0506 18.5374 6.00245C25.517 1.95429 34.4509 0.697964 43.1056 3.21061C34.3811 1.39592 26.0754 2.51266 18.8864 6.70041C11.6975 10.8184 6.53258 17.3792 3.81055 25.8943Z" fill="url(#paint4_radial_584_532)"/>
<path fill-rule="evenodd" clip-rule="evenodd" d="M12.6748 28.2674C13.6519 22.6838 17.9095 16.7511 23.0046 13.8197C28.0997 10.8883 35.2886 10.1205 40.6629 12.0748C34.0323 10.6789 28.0997 12.1446 23.5629 14.7968C19.0262 17.4491 14.7687 21.7764 12.6748 28.2674Z" fill="url(#paint5_radial_584_532)"/>
<path fill-rule="evenodd" clip-rule="evenodd" d="M66.9059 34.2C67.0455 43.2734 63.4859 51.5093 57.8324 57.2326C52.179 62.886 43.8733 66.5154 34.7998 66.306C43.7337 65.8175 51.4112 62.537 57.2741 56.6742C63.1369 50.8113 66.4173 43.1338 66.9059 34.2Z" fill="url(#paint6_radial_584_532)"/>
<path fill-rule="evenodd" clip-rule="evenodd" d="M57.6929 34.2C58.3908 47.6705 46.5255 57.5815 34.7998 57.093C47.0839 56.395 57.2043 46.484 57.6929 34.2Z" fill="url(#paint7_radial_584_532)"/>
<path d="M45.9915 21.509L48 23.5478L44.482 27.1165L48 30.6851L44.482 34.2538L48 37.8239L44.482 41.3925L48 44.9612L45.9901 47L40.4622 41.3911L43.9802 37.8239L40.4622 34.2538L43.9802 30.6851L40.4622 27.1165L45.9915 21.509ZM36.9086 45.7095C36.9087 45.8461 36.8705 45.9799 36.7986 46.0953C36.7266 46.2107 36.6238 46.3031 36.5021 46.3615C36.3805 46.42 36.2449 46.4422 36.1113 46.4256C35.9777 46.4089 35.8514 46.3541 35.7473 46.2675L28.2237 40.0198L22.6943 40.0213C22.3174 40.0213 21.9558 39.8694 21.6893 39.599C21.4227 39.3286 21.2729 38.9618 21.2729 38.5794V29.9281C21.2729 29.5457 21.4227 29.179 21.6893 28.9085C21.9558 28.6382 22.3174 28.4862 22.6943 28.4862L26.3673 28.4834L21 23.0388L23.0099 21L36.9086 35.0987V45.7095ZM36.748 22.3424C36.8517 22.4709 36.9084 22.6319 36.9086 22.798V31.0196L31.6237 25.6602L35.7473 22.24C35.8195 22.1799 35.9027 22.1349 35.9921 22.1074C36.0815 22.08 36.1753 22.0707 36.2683 22.0801C36.3612 22.0894 36.4514 22.1173 36.5337 22.1621C36.616 22.2068 36.6888 22.2676 36.748 22.3409V22.3424Z" fill="white"/>
<defs>
<linearGradient id="paint0_linear_584_532" x1="34.7958" y1="63.7626" x2="34.7958" y2="4.59039" gradientUnits="userSpaceOnUse">
<stop stop-color="#001C47"/>
<stop offset="0.0853119" stop-color="#012050"/>
<stop offset="0.2244" stop-color="#042B68"/>
<stop offset="0.4001" stop-color="#093D90"/>
<stop offset="0.6035" stop-color="#0F55C6"/>
<stop offset="0.65" stop-color="#115BD4"/>
<stop offset="1" stop-color="#2E96FF"/>
</linearGradient>
<linearGradient id="paint1_linear_584_532" x1="34.7962" y1="57.058" x2="34.7962" y2="11.2949" gradientUnits="userSpaceOnUse">
<stop stop-color="#002966"/>
<stop offset="0.1259" stop-color="#00317A"/>
<stop offset="0.3436" stop-color="#003D98"/>
<stop offset="0.4672" stop-color="#0041A3"/>
<stop offset="1" stop-color="#1379ED"/>
</linearGradient>
<linearGradient id="paint2_linear_584_532" x1="34.7957" y1="68.372" x2="34.7957" y2="-0.0188452" gradientUnits="userSpaceOnUse">
<stop stop-color="#572E18"/>
<stop offset="0.1342" stop-color="#653D23"/>
<stop offset="0.3916" stop-color="#896441"/>
<stop offset="0.7427" stop-color="#C2A271"/>
<stop offset="1" stop-color="#F0D497"/>
</linearGradient>
<linearGradient id="paint3_linear_584_532" x1="34.7959" y1="66.2767" x2="34.7959" y2="2.07616" gradientUnits="userSpaceOnUse">
<stop stop-color="#F0D497"/>
<stop offset="0.2573" stop-color="#C2A271"/>
<stop offset="0.6084" stop-color="#896441"/>
<stop offset="0.8658" stop-color="#653D23"/>
<stop offset="1" stop-color="#572E18"/>
</linearGradient>
<radialGradient id="paint4_radial_584_532" cx="0" cy="0" r="1" gradientUnits="userSpaceOnUse" gradientTransform="translate(11.4762 -0.831539) scale(52.2541 52.2541)">
<stop stop-color="#B0825F"/>
<stop offset="1"/>
</radialGradient>
<radialGradient id="paint5_radial_584_532" cx="0" cy="0" r="1" gradientUnits="userSpaceOnUse" gradientTransform="translate(21.3219 6.16972) scale(42.2223 42.2223)">
<stop stop-color="#1C76FF"/>
<stop offset="1"/>
</radialGradient>
<radialGradient id="paint6_radial_584_532" cx="0" cy="0" r="1" gradientUnits="userSpaceOnUse" gradientTransform="translate(59.7905 58.7387) scale(46.5812 46.5812)">
<stop stop-color="#B0825F"/>
<stop offset="1"/>
</radialGradient>
<radialGradient id="paint7_radial_584_532" cx="0" cy="0" r="1" gradientUnits="userSpaceOnUse" gradientTransform="translate(69.1348 49.8565) scale(48.2556 48.2556)">
<stop stop-color="#1C76FF"/>
<stop offset="1"/>
</radialGradient>
</defs>
</svg>
