<svg width="27" height="26" viewBox="0 0 27 26" fill="none" xmlns="http://www.w3.org/2000/svg">
<path d="M24.9915 0.508965L27 2.54778L23.482 6.11646L27 9.6851L23.482 13.2538L27 16.8239L23.482 20.3925L27 23.9612L24.9901 26L19.4622 20.3911L22.9802 16.8239L19.4622 13.2538L22.9802 9.6851L19.4622 6.11646L24.9915 0.508965ZM15.9086 24.7095C15.9087 24.8461 15.8705 24.9799 15.7986 25.0953C15.7266 25.2107 15.6238 25.3031 15.5021 25.3615C15.3805 25.42 15.2449 25.4422 15.1113 25.4256C14.9777 25.4089 14.8514 25.3541 14.7473 25.2675L7.22369 19.0198L1.69434 19.0213C1.31738 19.0213 0.955805 18.8694 0.689259 18.599C0.422675 18.3286 0.272914 17.9618 0.272914 17.5794V8.92813C0.272914 8.5457 0.422675 8.17896 0.689259 7.90854C0.955805 7.63816 1.31738 7.48625 1.69434 7.48625L5.3673 7.48336L0 2.03882L2.0099 0L15.9086 14.0987V24.7095ZM15.748 1.34237C15.8517 1.47095 15.9084 1.6319 15.9086 1.79801V10.0196L10.6237 4.66016L14.7473 1.24002C14.8195 1.17992 14.9027 1.13489 14.9921 1.10744C15.0815 1.08003 15.1753 1.07072 15.2683 1.0801C15.3612 1.08945 15.4514 1.11732 15.5337 1.16208C15.616 1.20684 15.6888 1.26762 15.748 1.34095V1.34237Z" fill="white"/>
</svg>
