<svg width="69" height="69" viewBox="0 0 69 69" fill="none" xmlns="http://www.w3.org/2000/svg">
<path fill-rule="evenodd" clip-rule="evenodd" d="M34.8 0C53.7147 0 69 15.2853 69 34.2C69 53.1146 53.7147 68.3999 34.8 68.3999C15.8854 68.3999 0.600098 53.1146 0.600098 34.2C0.600098 15.2853 15.8854 0 34.8 0Z" fill="#572E18"/>
<path fill-rule="evenodd" clip-rule="evenodd" d="M34.7999 4.60645C38.2199 4.60645 41.5702 5.16483 44.6412 6.28156L44.9902 7.1889L46.1069 6.83992C56.7856 11.3069 64.3236 21.846 64.3236 34.1999C64.3236 50.5321 51.0624 63.7933 34.7302 63.7933C18.3979 63.7933 5.13672 50.5321 5.13672 34.1999C5.13672 33.5717 5.13674 33.0134 5.20654 32.3852L6.25348 31.3383L5.41592 30.4309C7.30041 15.8436 19.724 4.60645 34.7999 4.60645Z" fill="url(#paint0_linear_584_497)"/>
<path fill-rule="evenodd" clip-rule="evenodd" d="M34.8002 11.3069C47.4333 11.3069 57.6933 21.5669 57.6933 34.1999C57.6933 46.833 47.4333 57.0929 34.8002 57.0929C22.1672 57.0929 11.9072 46.833 11.9072 34.1999C11.9072 21.5669 22.1672 11.3069 34.8002 11.3069Z" fill="url(#paint1_linear_584_497)"/>
<path fill-rule="evenodd" clip-rule="evenodd" d="M34.8 2.09387C52.5282 2.09387 66.9061 16.4718 66.9061 34.2C66.9061 51.9281 52.5282 66.306 34.8 66.306C17.0719 66.306 2.69397 51.9281 2.69397 34.2C2.69397 16.4718 17.0719 2.09387 34.8 2.09387ZM69 34.2C69 15.2853 53.7147 0 34.8 0C15.8854 0 0.600098 15.2853 0.600098 34.2C0.600098 53.1146 15.8854 68.3999 34.8 68.3999C53.7147 68.3999 69 53.0448 69 34.2Z" fill="url(#paint2_linear_584_497)"/>
<path fill-rule="evenodd" clip-rule="evenodd" d="M66.906 34.1999C66.906 16.4718 52.5281 2.09387 34.7999 2.09387C17.0718 2.09387 2.69385 16.4718 2.69385 34.1999C2.69385 51.9281 17.0718 66.306 34.7999 66.306C52.5281 66.306 66.906 51.9281 66.906 34.1999ZM34.7999 4.6065C51.1321 4.6065 64.3934 17.8677 64.3934 34.1999C64.3934 50.5322 51.1321 63.7934 34.7999 63.7934C18.4677 63.7934 5.20652 50.5322 5.20652 34.1999C5.20652 17.8677 18.4677 4.6065 34.7999 4.6065Z" fill="url(#paint3_linear_584_497)"/>
<path fill-rule="evenodd" clip-rule="evenodd" d="M3.81055 25.8943C5.97422 17.1 11.5579 10.0506 18.5374 6.00245C25.517 1.95429 34.4509 0.697964 43.1056 3.21061C34.3811 1.39592 26.0754 2.51266 18.8864 6.70041C11.6975 10.8184 6.53258 17.3792 3.81055 25.8943Z" fill="url(#paint4_radial_584_497)"/>
<path fill-rule="evenodd" clip-rule="evenodd" d="M12.6748 28.2673C13.6519 22.6836 17.9095 16.751 23.0046 13.8196C28.0997 10.8881 35.2886 10.1204 40.6629 12.0747C34.0323 10.6788 28.0997 12.1445 23.5629 14.7967C19.0262 17.4489 14.7687 21.7763 12.6748 28.2673Z" fill="url(#paint5_radial_584_497)"/>
<path fill-rule="evenodd" clip-rule="evenodd" d="M66.9059 34.2C67.0455 43.2734 63.4859 51.5093 57.8324 57.2326C52.179 62.886 43.8733 66.5154 34.7998 66.306C43.7337 65.8175 51.4112 62.537 57.2741 56.6742C63.1369 50.8113 66.4173 43.1338 66.9059 34.2Z" fill="url(#paint6_radial_584_497)"/>
<path fill-rule="evenodd" clip-rule="evenodd" d="M57.6929 34.2C58.3908 47.6705 46.5255 57.5815 34.7998 57.093C47.0839 56.395 57.2043 46.484 57.6929 34.2Z" fill="url(#paint7_radial_584_497)"/>
<path fill-rule="evenodd" clip-rule="evenodd" d="M46.9988 37.5581C47.0005 36.8114 46.6654 36.1051 46.0886 35.6393L44.0647 34.0013L46.0886 32.3616C46.6638 31.8941 46.9988 31.1895 46.9988 30.4445C46.9988 29.6995 46.6637 28.9932 46.0886 28.5257L44.0647 26.8877L46.442 24.9621C47.0822 24.4459 47.1872 23.5041 46.6754 22.8566C46.1653 22.2109 45.2317 22.1032 44.5898 22.6178L41.6857 24.9705H41.684C41.1088 25.438 40.7754 26.1427 40.7754 26.8877C40.7754 27.6327 41.1088 28.339 41.684 28.8065L43.7063 30.4445L41.684 32.0825C41.1088 32.55 40.7738 33.2563 40.7738 34.0013C40.7738 34.7462 41.1088 35.4509 41.684 35.9184L43.7063 37.5581L41.6823 39.1977L41.684 39.1961C41.1088 39.6636 40.7738 40.3699 40.7738 41.1149C40.7738 41.8599 41.1088 42.5645 41.684 43.032L44.5865 45.3847C44.8933 45.6336 45.285 45.748 45.6768 45.7042C46.0686 45.6605 46.4254 45.4604 46.6704 45.1509C47.1806 44.5018 47.0772 43.56 46.4387 43.0404L44.0647 41.1148L46.0869 39.4768L46.0886 39.4752C46.6654 39.0093 47.0005 38.3031 46.9988 37.5581ZM34.2584 22.354L27.2915 27.9946H24.1173C22.9453 27.998 21.9983 28.9582 22 30.1405V37.8631C21.9983 38.4298 22.2217 38.9764 22.6185 39.3783C23.0153 39.7802 23.5554 40.0072 24.1189 40.0072H27.2965L34.26 45.6479C34.7351 46.033 35.3869 46.1087 35.9354 45.843C36.4839 45.5756 36.8324 45.0139 36.829 44.4V23.6056C36.834 22.9901 36.4873 22.4267 35.9371 22.1577C35.387 21.8903 34.7335 21.9676 34.2583 22.3544L34.2584 22.354Z" fill="white"/>
<defs>
<linearGradient id="paint0_linear_584_497" x1="34.7958" y1="63.7626" x2="34.7958" y2="4.59039" gradientUnits="userSpaceOnUse">
<stop stop-color="#001C47"/>
<stop offset="0.0853119" stop-color="#012050"/>
<stop offset="0.2244" stop-color="#042B68"/>
<stop offset="0.4001" stop-color="#093D90"/>
<stop offset="0.6035" stop-color="#0F55C6"/>
<stop offset="0.65" stop-color="#115BD4"/>
<stop offset="1" stop-color="#2E96FF"/>
</linearGradient>
<linearGradient id="paint1_linear_584_497" x1="34.7962" y1="57.058" x2="34.7962" y2="11.2949" gradientUnits="userSpaceOnUse">
<stop stop-color="#002966"/>
<stop offset="0.1259" stop-color="#00317A"/>
<stop offset="0.3436" stop-color="#003D98"/>
<stop offset="0.4672" stop-color="#0041A3"/>
<stop offset="1" stop-color="#1379ED"/>
</linearGradient>
<linearGradient id="paint2_linear_584_497" x1="34.7957" y1="68.372" x2="34.7957" y2="-0.0188452" gradientUnits="userSpaceOnUse">
<stop stop-color="#572E18"/>
<stop offset="0.1342" stop-color="#653D23"/>
<stop offset="0.3916" stop-color="#896441"/>
<stop offset="0.7427" stop-color="#C2A271"/>
<stop offset="1" stop-color="#F0D497"/>
</linearGradient>
<linearGradient id="paint3_linear_584_497" x1="34.7959" y1="66.2768" x2="34.7959" y2="2.07628" gradientUnits="userSpaceOnUse">
<stop stop-color="#F0D497"/>
<stop offset="0.2573" stop-color="#C2A271"/>
<stop offset="0.6084" stop-color="#896441"/>
<stop offset="0.8658" stop-color="#653D23"/>
<stop offset="1" stop-color="#572E18"/>
</linearGradient>
<radialGradient id="paint4_radial_584_497" cx="0" cy="0" r="1" gradientUnits="userSpaceOnUse" gradientTransform="translate(11.4762 -0.831539) scale(52.2541 52.2541)">
<stop stop-color="#B0825F"/>
<stop offset="1"/>
</radialGradient>
<radialGradient id="paint5_radial_584_497" cx="0" cy="0" r="1" gradientUnits="userSpaceOnUse" gradientTransform="translate(21.3219 6.16959) scale(42.2223 42.2223)">
<stop stop-color="#1C76FF"/>
<stop offset="1"/>
</radialGradient>
<radialGradient id="paint6_radial_584_497" cx="0" cy="0" r="1" gradientUnits="userSpaceOnUse" gradientTransform="translate(59.7905 58.7387) scale(46.5812 46.5812)">
<stop stop-color="#B0825F"/>
<stop offset="1"/>
</radialGradient>
<radialGradient id="paint7_radial_584_497" cx="0" cy="0" r="1" gradientUnits="userSpaceOnUse" gradientTransform="translate(69.1348 49.8565) scale(48.2556 48.2556)">
<stop stop-color="#1C76FF"/>
<stop offset="1"/>
</radialGradient>
</defs>
</svg>
