<svg width="30" height="30" viewBox="0 0 30 30" fill="none" xmlns="http://www.w3.org/2000/svg">
<path d="M15 0C6.72857 0 0 6.72857 0 15C0 23.2714 6.72857 30 15 30C23.2714 30 30 23.2714 30 15C30 6.72857 23.2714 0 15 0ZM21.1179 12.5465L14.6894 18.9751C14.4751 19.1787 14.2072 19.2858 13.9286 19.2858C13.65 19.2858 13.3822 19.1787 13.1679 18.9751L9.95362 15.7608C9.53575 15.3429 9.53575 14.6572 9.95362 14.2394C10.3715 13.8215 11.0572 13.8215 11.4751 14.2394L13.9286 16.7037L19.5964 11.0253C20.0143 10.6074 20.7 10.6074 21.1178 11.0253C21.5356 11.4431 21.5358 12.1287 21.1179 12.5465Z" fill="#1DD882"/>
</svg>
