<svg width="20" height="18" viewBox="0 0 20 18" fill="none" xmlns="http://www.w3.org/2000/svg">
<path d="M10.1487 18C15.1658 18 19.233 13.9706 19.233 9C19.233 4.02944 15.1658 0 10.1487 0C5.13162 0 1.06445 4.02944 1.06445 9C1.06445 13.9706 5.13162 18 10.1487 18Z" fill="#CE7B0D"/>
<path d="M12.9318 0.844738L0.852648 12.8118C0.305677 11.6544 0 10.3625 0 9C0 4.02944 4.06709 0 9.08428 0C10.4596 0 11.7636 0.302841 12.9318 0.844738Z" fill="#F8DB61"/>
<path d="M14.1657 1.53847L1.55308 14.034C1.45255 13.8867 1.35627 13.7362 1.26465 13.5829L13.7104 1.25262C13.8651 1.34348 14.0171 1.43887 14.1657 1.53847Z" fill="#F8DB61"/>
<path d="M16.8521 4.33021L4.37135 16.6952C3.74642 16.3188 3.17121 15.8697 2.65723 15.3598L15.5042 2.63199C16.0188 3.14121 16.4721 3.71116 16.8521 4.33021Z" fill="#F8DB61"/>
<path d="M18.1704 9.00001C18.1704 13.9706 14.1033 17.9999 9.08621 17.9999C7.67343 17.9999 6.33611 17.6804 5.14355 17.1105L17.2726 5.09393C17.8479 6.27543 18.1704 7.60034 18.1704 9.00001Z" fill="#F8DB61"/>
<path d="M2.99518 11.8683C3.06881 12.0383 3.14877 12.2048 3.23481 12.3678L2.80927 12.7894C2.71449 12.6357 2.62528 12.4782 2.54199 12.3172L2.99518 11.8683Z" fill="#CE7B0D"/>
<path d="M5.88805 15.1933L5.64509 15.434C4.99443 15.0917 4.40181 14.6555 3.88574 14.1434L4.22982 13.8026C4.70899 14.3431 5.26787 14.8127 5.88805 15.1933Z" fill="#CE7B0D"/>
<path d="M5.92578 15.2172C5.95118 15.2325 5.97667 15.2477 6.00233 15.2628C5.97675 15.2479 5.95118 15.2326 5.92578 15.2172Z" fill="#D89A0F"/>
<path d="M9.41635 16.2723C9.30599 16.2773 9.19496 16.2797 9.08326 16.2797C8.1594 16.2797 7.27535 16.1107 6.46094 15.8024L6.65884 15.6063C7.50341 15.9947 8.43493 16.2289 9.41635 16.2723Z" fill="#CE7B0D"/>
<path d="M2.68284 10.9986L2.17985 11.4969C1.89291 10.7182 1.73633 9.87724 1.73633 8.99999C1.73633 4.97946 5.02606 1.72025 9.08424 1.72025C9.19594 1.72025 9.30696 1.72264 9.41732 1.72759C5.51365 1.90013 2.40257 5.09004 2.40257 8.99991C2.40249 9.69306 2.50019 10.3636 2.68284 10.9986Z" fill="#CE7B0D"/>
<path d="M11.6042 2.15984L2.6827 10.9986C2.50013 10.3636 2.40234 9.69308 2.40234 9.00001C2.40234 5.09014 5.51351 1.90024 9.4171 1.72769C10.1825 1.76152 10.9173 1.91138 11.6042 2.15984Z" fill="#F5BF37"/>
<path d="M12.9082 2.78317L3.23377 12.3678C3.14773 12.2048 3.06777 12.0382 2.99414 11.8683L12.4317 2.51837C12.5941 2.60089 12.7531 2.68927 12.9082 2.78317Z" fill="#F5BF37"/>
<path d="M15.5776 5.59143L5.88578 15.1933C5.26559 14.8127 4.70671 14.3431 4.22754 13.8026L14.2749 3.84848C14.7917 4.35968 15.2321 4.9468 15.5776 5.59143Z" fill="#F5BF37"/>
<path d="M16.4323 9.00001C16.4323 12.9099 13.3212 16.0998 9.41758 16.2723C8.43608 16.2289 7.50456 15.9948 6.66016 15.6063L15.9507 6.40201C16.2618 7.20887 16.4323 8.08472 16.4323 9.00001Z" fill="#F5BF37"/>
<path d="M2.99477 11.8683L2.54159 12.3173C2.40466 12.0528 2.28363 11.7789 2.17969 11.4969L2.68268 10.9986C2.76847 11.2968 2.87283 11.5871 2.99477 11.8683Z" fill="#CE7B0D"/>
<path d="M2.17888 11.4969C2.28283 11.7789 2.40394 12.0528 2.54078 12.3173L1.26327 13.583C1.11393 13.3334 0.976499 13.0761 0.851562 12.8119L2.17888 11.4969Z" fill="#FFE783"/>
<path d="M12.4332 2.51836L2.99568 11.8683C2.98869 11.8521 2.98177 11.836 2.97486 11.8198C2.95862 11.7816 2.94279 11.7433 2.9273 11.7049C2.92222 11.6926 2.91731 11.6802 2.91239 11.6679C2.87091 11.5637 2.83185 11.4585 2.79529 11.3519C2.79146 11.3409 2.78762 11.3301 2.78396 11.319C2.78263 11.3152 2.78129 11.3113 2.78013 11.3075C2.77288 11.2861 2.76572 11.2646 2.75872 11.2431C2.75264 11.2248 2.74673 11.2064 2.7409 11.1879C2.7369 11.1753 2.7329 11.1626 2.72899 11.1499C2.71333 11.0997 2.69817 11.0492 2.68359 10.9987L11.6051 2.15982C11.8898 2.26272 12.1662 2.38262 12.4332 2.51836Z" fill="#FFCB57"/>
<path d="M13.7092 1.25262L12.4316 2.51837C12.1646 2.38262 11.8882 2.26273 11.6035 2.15983L12.9308 0.844818C13.1976 0.968513 13.4573 1.10467 13.7092 1.25262Z" fill="#FFE783"/>
<path d="M14.2746 3.84848L4.22722 13.8026C3.84109 13.3673 3.50659 12.8859 3.2334 12.3678L12.9078 2.78317C13.4055 3.0842 13.8641 3.44233 14.2746 3.84848Z" fill="#FFCB57"/>
<path d="M4.22706 13.8026L3.88298 14.1435C3.47311 13.7369 3.11163 13.2824 2.80762 12.7895L3.23315 12.3679C3.24156 12.3841 3.25014 12.4002 3.25889 12.4163C3.26605 12.4298 3.27338 12.4432 3.28071 12.4567C3.28479 12.4643 3.28895 12.4717 3.29312 12.4793C3.29845 12.4892 3.30386 12.499 3.30944 12.5089C3.31136 12.5124 3.31328 12.5158 3.31519 12.5192C3.32285 12.5329 3.33052 12.5467 3.33835 12.5604C3.34726 12.5763 3.35642 12.5922 3.36558 12.608C3.37466 12.6239 3.38391 12.6396 3.39307 12.6554C3.40223 12.6712 3.41156 12.6869 3.42105 12.7025C3.42947 12.7168 3.43805 12.731 3.44671 12.7452C3.44796 12.7473 3.44929 12.7495 3.45046 12.7514C3.45762 12.7634 3.46503 12.7754 3.47236 12.7873C3.47636 12.7938 3.48044 12.8004 3.48444 12.8069C3.4911 12.8178 3.49785 12.8285 3.50459 12.8392C3.50693 12.8429 3.50926 12.8467 3.51167 12.8504C3.51909 12.8623 3.52667 12.8744 3.53441 12.8863C3.53666 12.8898 3.53899 12.8934 3.54124 12.8969C3.54932 12.9096 3.55748 12.9222 3.56573 12.9348C3.58364 12.9625 3.60179 12.99 3.6202 13.0174C3.63228 13.0355 3.64436 13.0534 3.65668 13.0714C3.66635 13.0857 3.67617 13.0999 3.68617 13.1142C3.68708 13.1157 3.68808 13.1171 3.68908 13.1185C3.69841 13.132 3.70782 13.1455 3.71732 13.1589C3.71882 13.161 3.72023 13.163 3.72165 13.165C3.73098 13.1782 3.74022 13.1913 3.74964 13.2044C3.75896 13.2174 3.76821 13.2304 3.77762 13.2432C3.78437 13.2526 3.7912 13.2619 3.79811 13.2712C3.81435 13.2935 3.83093 13.3159 3.84759 13.338C3.85592 13.3491 3.86424 13.3602 3.87274 13.3713C3.8864 13.3893 3.90006 13.4072 3.91397 13.4249C3.92255 13.4363 3.93129 13.4476 3.94021 13.4587C3.94562 13.4655 3.95103 13.4725 3.95653 13.4793C3.96461 13.4896 3.97277 13.4999 3.98093 13.5102C4.01508 13.553 4.04973 13.5953 4.0848 13.6373C4.10804 13.6653 4.13152 13.6931 4.15535 13.7206C4.16709 13.7344 4.179 13.7482 4.19108 13.7618C4.20282 13.7753 4.21481 13.7891 4.22706 13.8026Z" fill="#CE7B0D"/>
<path d="M3.8483 13.3377C3.83165 13.3156 3.81507 13.2932 3.79883 13.271C3.81515 13.2932 3.83165 13.3156 3.8483 13.3377Z" fill="#D89A0F"/>
<path d="M2.80901 12.7894C3.11302 13.2824 3.4745 13.7369 3.88438 14.1434L2.65659 15.3598C2.2478 14.9543 1.87782 14.5104 1.55273 14.034L2.80901 12.7894Z" fill="#FFE783"/>
<path d="M4.08496 13.6372C4.10828 13.6652 4.13177 13.6929 4.15551 13.7205C4.13169 13.693 4.1082 13.6652 4.08496 13.6372Z" fill="#D89A0F"/>
<path d="M15.5047 2.63206L14.277 3.84846C13.8666 3.44239 13.4078 3.08426 12.9102 2.78316L14.1665 1.53845C14.6474 1.86052 15.0955 2.22698 15.5047 2.63206Z" fill="#FFE783"/>
<path d="M15.9523 6.40201L6.66178 15.6063C6.39508 15.4836 6.13696 15.3456 5.88867 15.1933L15.5805 5.59143C15.7204 5.8526 15.8447 6.12318 15.9523 6.40201Z" fill="#FFCB57"/>
<path d="M6.6606 15.6063L6.4627 15.8024C6.18126 15.6959 5.90806 15.5727 5.64453 15.434L5.88749 15.1933C5.90057 15.2013 5.91373 15.2093 5.92672 15.2172C5.95212 15.2325 5.97761 15.2479 6.00326 15.2628C6.00485 15.2639 6.00643 15.2647 6.00801 15.2657C6.01876 15.2721 6.02967 15.2784 6.0405 15.2846C6.06798 15.3006 6.09563 15.3164 6.12337 15.332C6.15427 15.3495 6.18542 15.3668 6.21674 15.3837C6.21824 15.3844 6.21965 15.3853 6.22115 15.386C6.2364 15.3944 6.2518 15.4027 6.26721 15.4108C6.28337 15.4195 6.29945 15.4281 6.31569 15.4365C6.31844 15.4379 6.3211 15.4394 6.32393 15.4409C6.35359 15.4564 6.38324 15.4717 6.41314 15.4868C6.42946 15.4951 6.44587 15.5033 6.4622 15.5114C6.49243 15.5265 6.52275 15.5413 6.55315 15.5558C6.57231 15.5652 6.59163 15.5742 6.61079 15.5833C6.62736 15.591 6.64394 15.5987 6.6606 15.6063Z" fill="#CE7B0D"/>
<path d="M6.21642 15.3837C6.1851 15.3668 6.15403 15.3494 6.12305 15.332C6.15395 15.3494 6.1851 15.3666 6.21642 15.3837Z" fill="#D89A0F"/>
<path d="M5.64411 15.434C5.90773 15.5727 6.18084 15.6958 6.46228 15.8024L5.14195 17.1105C4.87767 16.9841 4.62038 16.8454 4.37109 16.6951L5.64411 15.434Z" fill="#FFE783"/>
<path d="M6.46094 15.5114C6.49117 15.5264 6.52149 15.5412 6.55189 15.5558C6.52157 15.5413 6.49117 15.5264 6.46094 15.5114Z" fill="#D89A0F"/>
<path d="M17.2703 5.09394L15.9499 6.40201C15.8424 6.12318 15.7181 5.85252 15.5781 5.59144L16.8511 4.33023C17.0027 4.57721 17.1427 4.83211 17.2703 5.09394Z" fill="#FFE783"/>
<path d="M11.9046 8.89157C11.5769 8.64773 10.9395 8.42898 9.99311 8.23522V6.13728C10.1504 6.16872 10.2684 6.217 10.3464 6.28243C10.4568 6.3751 10.5122 6.52429 10.5122 6.73034V7.36953H12.42V6.82466C12.42 6.11129 12.2414 5.63764 11.8842 5.40329C11.5522 5.18544 10.9216 5.06298 9.99311 5.0355V4.02185H8.65371V5.03971C7.78366 5.08518 7.16539 5.23421 6.79899 5.48721C6.40403 5.76001 6.20663 6.22319 6.20663 6.87698V7.58581C6.20663 8.131 6.39095 8.53196 6.75976 8.78859C7.10242 9.02723 7.73385 9.22775 8.65371 9.39031V11.7842C8.47172 11.7571 8.33737 11.7099 8.25084 11.6424C8.13398 11.5515 8.07584 11.3972 8.07584 11.18V10.3449H6.10352V11.0542C6.10352 11.7332 6.29625 12.2055 6.68222 12.4715C7.05761 12.7302 7.71478 12.8629 8.65371 12.87V13.9782H9.99311V12.8661C10.8238 12.84 11.43 12.6971 11.8118 12.4374C12.2259 12.1557 12.433 11.6982 12.433 11.0648V10.0708C12.433 9.54677 12.2567 9.15373 11.9046 8.89157ZM8.2784 7.78897C8.15189 7.68178 8.08867 7.53143 8.08867 7.33809V6.66218C8.08867 6.48064 8.1483 6.34705 8.26774 6.26139C8.35453 6.19926 8.4833 6.15503 8.65371 6.12878V7.96069C8.49396 7.92273 8.36878 7.86554 8.2784 7.78897ZM10.5508 11.2695C10.5508 11.4447 10.4934 11.5725 10.3788 11.653C10.2956 11.7115 10.1669 11.7542 9.99311 11.7813V9.66559C10.1597 9.71238 10.2861 9.77353 10.3718 9.8492C10.4911 9.95474 10.5509 10.1041 10.5509 10.2974V11.2695H10.5508Z" fill="#D89A0F"/>
<path d="M11.5365 8.89157C11.2087 8.64773 10.5713 8.42898 9.62495 8.23522V6.13728C9.78229 6.16872 9.90023 6.217 9.97827 6.28243C10.0886 6.3751 10.144 6.52429 10.144 6.73034V7.36953H12.0519V6.82466C12.0519 6.11129 11.8732 5.63764 11.5161 5.40329C11.1841 5.18544 10.5535 5.06298 9.62495 5.0355V4.02185H8.28555V5.03971C7.41549 5.08518 6.79723 5.23421 6.43083 5.48721C6.03586 5.76001 5.83847 6.22319 5.83847 6.87698V7.58581C5.83847 8.131 6.02279 8.53196 6.3916 8.78859C6.73426 9.02723 7.36569 9.22775 8.28555 9.39031V11.7842C8.10356 11.7571 7.96921 11.7099 7.88267 11.6424C7.76582 11.5515 7.70768 11.3972 7.70768 11.18V10.3449H5.73535V11.0542C5.73535 11.7332 5.92809 12.2055 6.31406 12.4715C6.68945 12.7302 7.34661 12.8629 8.28555 12.87V13.9782H9.62495V12.8661C10.4556 12.84 11.0618 12.6971 11.4436 12.4374C11.8577 12.1557 12.0648 11.6982 12.0648 11.0648V10.0708C12.0648 9.54677 11.8885 9.15373 11.5365 8.89157ZM7.91024 7.78897C7.78372 7.68178 7.72051 7.53143 7.72051 7.33809V6.66218C7.72051 6.48064 7.78014 6.34705 7.89958 6.26139C7.98637 6.19926 8.11514 6.15503 8.28555 6.12878V7.96069C8.1258 7.92273 8.00061 7.86554 7.91024 7.78897ZM10.1827 11.2695C10.1827 11.4447 10.1253 11.5725 10.0107 11.653C9.92746 11.7115 9.79869 11.7542 9.62495 11.7813V9.66559C9.79153 9.71238 9.91797 9.77353 10.0037 9.8492C10.1229 9.95474 10.1827 10.1041 10.1827 10.2974V11.2695H10.1827Z" fill="#FFE783"/>
<path opacity="0.2" d="M2.88774 7.17091C3.64123 7.17091 4.25204 6.36289 4.25204 5.36615C4.25204 4.36942 3.64123 3.5614 2.88774 3.5614C2.13426 3.5614 1.52344 4.36942 1.52344 5.36615C1.52344 6.36289 2.13426 7.17091 2.88774 7.17091Z" fill="white"/>
<path opacity="0.2" d="M4.31605 4.06724C4.67398 4.06724 4.96414 3.68346 4.96414 3.21004C4.96414 2.73662 4.67398 2.35284 4.31605 2.35284C3.95813 2.35284 3.66797 2.73662 3.66797 3.21004C3.66797 3.68346 3.95813 4.06724 4.31605 4.06724Z" fill="white"/>
<path opacity="0.2" d="M14.8049 15.0522C15.5207 15.0522 16.101 14.2846 16.101 13.3377C16.101 12.3909 15.5207 11.6233 14.8049 11.6233C14.0891 11.6233 13.5088 12.3909 13.5088 13.3377C13.5088 14.2846 14.0891 15.0522 14.8049 15.0522Z" fill="white"/>
</svg>
