<svg width="86" height="9" viewBox="0 0 86 9" fill="none" xmlns="http://www.w3.org/2000/svg">
<path d="M82.976 9.00354H2.99041C1.3503 9.00354 0.0214844 6.98868 0.0214844 4.50177C0.0214844 2.01486 1.3503 0 2.99041 0H82.9836C84.6237 0 85.9526 2.01486 85.9526 4.50177C85.945 7.00019 84.6161 9.00354 82.976 9.00354Z" fill="#282844"/>
<path d="M82.5593 9H3.44073C1.53999 9 0 6.98593 0 4.5C0 2.01407 1.53999 0 3.44073 0H82.5593C84.46 0 86 2.01407 86 4.5C86 6.99744 84.46 9 82.5593 9Z" fill="url(#paint0_linear_769_857)"/>
<mask id="mask0_769_857" style="mask-type:luminance" maskUnits="userSpaceOnUse" x="0" y="0" width="86" height="9">
<path d="M82.5593 9H3.44073C1.53999 9 0 6.98593 0 4.5C0 2.01407 1.53999 0 3.44073 0H82.5593C84.46 0 86 2.01407 86 4.5C86 6.99744 84.46 9 82.5593 9Z" fill="white"/>
</mask>
<g mask="url(#mask0_769_857)">
<g opacity="0.4">
<path d="M1.75848 20.8626H-1.66602L9.1997 -11.6975H12.6318L1.75848 20.8626Z" fill="#589674"/>
<path d="M9.47332 20.8626H6.04883L16.9145 -11.6975H20.3466L9.47332 20.8626Z" fill="#589674"/>
<path d="M17.187 20.8626H13.7549L24.6282 -11.6975H28.0602L17.187 20.8626Z" fill="#589674"/>
<path d="M24.9018 20.8626H21.4697L32.343 -11.6975H35.7675L24.9018 20.8626Z" fill="#589674"/>
<path d="M32.6156 20.8626H29.1836L40.0569 -11.6975H43.4814L32.6156 20.8626Z" fill="#589674"/>
<path d="M40.3249 20.8626H36.9004L47.7737 -11.6975H51.1982L40.3249 20.8626Z" fill="#589674"/>
<path d="M48.0387 20.8626H44.6143L55.48 -11.6975H58.912L48.0387 20.8626Z" fill="#589674"/>
<path d="M55.7536 20.8626H52.3291L63.1948 -11.6975H66.6269L55.7536 20.8626Z" fill="#589674"/>
<path d="M63.4672 20.8626H60.0352L70.9085 -11.6975H74.3405L63.4672 20.8626Z" fill="#589674"/>
<path d="M70.432 20.8626H67L77.8733 -11.6975H81.3054L70.432 20.8626Z" fill="#589674"/>
<path d="M77.432 20.8626H74L84.8733 -11.6975H88.3054L77.432 20.8626Z" fill="#589674"/>
</g>
</g>
<defs>
<linearGradient id="paint0_linear_769_857" x1="42.9983" y1="11.7308" x2="42.9983" y2="-1.33619" gradientUnits="userSpaceOnUse">
<stop stop-color="#21CF46"/>
<stop offset="1" stop-color="#67FF7D"/>
</linearGradient>
</defs>
</svg>
