<svg width="87" height="9" viewBox="0 0 87 9" fill="none" xmlns="http://www.w3.org/2000/svg">
<path d="M3.91444 9H83.888C85.5278 9 86.8564 6.98593 86.8564 4.5C86.8564 2.01407 85.5278 0 83.888 0H3.90684C2.26698 0 0.938354 2.01407 0.938354 4.5C0.945953 6.98593 2.27457 9 3.91444 9Z" fill="#282844"/>
<path d="M3.91443 9H83.888C85.5278 9 86.8564 6.98593 86.8564 4.5C86.8564 2.01407 85.5278 0 83.888 0H3.90683C2.26697 0 0.938358 2.01407 0.938358 4.5C0.94595 6.98593 2.27457 9 3.91443 9Z" fill="url(#paint0_linear_769_902)"/>
<mask id="mask0_769_902" style="mask-type:luminance" maskUnits="userSpaceOnUse" x="1" y="0" width="86" height="9">
<path d="M6.94199 9H81.0579C84.3405 9 87 6.98593 87 4.5C87 2.01407 84.3405 0 81.0579 0H6.94199C3.65944 0 0.999998 2.01407 0.999998 4.5C0.999998 6.98593 3.65944 9 6.94199 9Z" fill="white"/>
</mask>
<g mask="url(#mask0_769_902)">
<g opacity="0.4">
<path d="M85.118 20.8427H88.542L77.6779 -11.7046H74.2463L85.118 20.8427Z" fill="#967058"/>
<path d="M77.4041 20.8427H80.8281L69.9641 -11.7046H66.5325L77.4041 20.8427Z" fill="#967058"/>
<path d="M69.6924 20.8427H73.124L62.2524 -11.7046H58.8208L69.6924 20.8427Z" fill="#967058"/>
<path d="M61.9776 20.8427H65.4092L54.5375 -11.7046H51.1135L61.9776 20.8427Z" fill="#967058"/>
<path d="M54.2648 20.8427H57.6963L46.8246 -11.7046H43.4007L54.2648 20.8427Z" fill="#967058"/>
<path d="M46.5584 20.8427H49.9824L39.1107 -11.7046H35.6868L46.5584 20.8427Z" fill="#967058"/>
<path d="M38.8446 20.8427H42.2686L31.4045 -11.7046H27.973L38.8446 20.8427Z" fill="#967058"/>
<path d="M31.1307 20.8427H34.5547L23.6906 -11.7046H20.259L31.1307 20.8427Z" fill="#967058"/>
<path d="M23.4191 20.8427H26.8506L15.9789 -11.7046H12.5474L23.4191 20.8427Z" fill="#967058"/>
<path d="M15.8712 20.8427H19.3027L8.43106 -11.7046H4.99953L15.8712 20.8427Z" fill="#967058"/>
<path d="M8.87121 20.8427H12.3027L1.43106 -11.7046H-2.00047L8.87121 20.8427Z" fill="#967058"/>
</g>
</g>
<defs>
<linearGradient id="paint0_linear_769_902" x1="43.8898" y1="11.7208" x2="43.8898" y2="-1.3462" gradientUnits="userSpaceOnUse">
<stop stop-color="#FA6B49"/>
<stop offset="1" stop-color="#FEB749"/>
</linearGradient>
</defs>
</svg>
