<svg width="8" height="12" viewBox="0 0 8 12" fill="none" xmlns="http://www.w3.org/2000/svg">
<path d="M7.99999 10.1066C8.00103 10.3761 7.9154 10.6398 7.75396 10.8642C7.59251 11.0887 7.36252 11.2639 7.09314 11.3675C6.82376 11.4712 6.52712 11.4986 6.24082 11.4464C5.95452 11.3942 5.69145 11.2647 5.48497 11.0742L0.783716 6.72836C0.646173 6.60138 0.537264 6.45048 0.463291 6.28439C0.389318 6.1183 0.351748 5.94031 0.352757 5.76072C0.352757 5.745 0.352757 5.73048 0.352757 5.71597C0.345668 5.52997 0.380161 5.34463 0.454083 5.17148C0.528005 4.99834 0.639769 4.84112 0.782406 4.70963L5.48628 0.374638C5.76491 0.129977 6.13607 -0.00443842 6.52054 7.98085e-05C6.90501 0.00459804 7.27234 0.147692 7.54413 0.398822C7.81593 0.649952 7.97067 0.989228 7.97532 1.34424C7.97997 1.69926 7.83417 2.04189 7.56903 2.29902L3.862 5.72202L7.56903 9.14502C7.70579 9.27127 7.81425 9.42119 7.8882 9.58619C7.96215 9.75119 8.00013 9.92803 7.99999 10.1066Z" fill="white"/>
</svg>
